<?xml version="1.0" standalone="no"?>
<!DOCTYPE svg PUBLIC "-//W3C//DTD SVG 20010904//EN"
 "http://www.w3.org/TR/2001/REC-SVG-20010904/DTD/svg10.dtd">
<svg version="1.0" xmlns="http://www.w3.org/2000/svg"
 width="205.000000pt" height="205.000000pt" viewBox="0 0 205.000000 205.000000"
 preserveAspectRatio="xMidYMid meet">
<metadata>
Created by potrace 1.14, written by Peter Selinger 2001-2017
</metadata>
<g transform="translate(0.000000,205.000000) scale(0.100000,-0.100000)"
fill="#000000" stroke="none">
<path d="M339 2006 c-3 -3 -71 -11 -128 -16 -3 0 28 -30 68 -66 87 -81 148
-158 202 -258 22 -42 45 -78 49 -81 5 -3 60 -8 122 -10 204 -8 337 -24 513
-64 171 -38 369 -102 490 -157 164 -74 313 -150 325 -165 10 -12 52 -31 57
-25 3 3 -24 49 -60 104 -64 99 -212 259 -312 339 -254 203 -556 332 -910 388
-44 7 -410 17 -416 11z"/>
<path d="M102 1688 c-79 -242 -101 -377 -97 -613 2 -93 8 -195 14 -225 6 -30
12 -66 15 -80 2 -14 9 -45 16 -70 7 -25 13 -52 15 -60 12 -56 99 -260 139
-325 91 -148 193 -276 201 -253 2 7 16 51 31 98 28 89 64 167 120 261 41 68
42 83 8 133 -156 229 -310 596 -370 881 -19 90 -33 193 -39 290 -3 43 -7 81
-9 82 -2 2 -22 -52 -44 -119z"/>
<path d="M1643 1003 c-11 -10 -42 -45 -68 -78 -83 -102 -235 -248 -346 -332
-153 -116 -267 -181 -503 -288 l-29 -13 47 -7 c26 -4 100 -5 164 -2 373 17
747 215 991 525 63 80 143 203 137 210 -2 2 -33 -2 -67 -8 -78 -14 -221 -14
-269 0 -19 5 -36 10 -36 10 -1 0 -11 -8 -21 -17z"/>
</g>
</svg>
