<svg width="798" height="202" xmlns="http://www.w3.org/2000/svg" xml:space="preserve" version="1.1">

 <g>
  <title>Layer 1</title>
  <path id="svg_1" fill="#364ca0" clip-rule="evenodd" fill-rule="evenodd" d="m301.99635,134.58852c-15.79,-3.12 -31.48,-6.65 -47.04,-10.64c0,0.12 -0.02,0.25 -0.06,0.38c-0.27,0.83 -0.79,1.77 -1.48,2.25c-2.65,1.81 -5.36,3.53 -8.16,5.09c-0.89,0.5 -2.11,0.52 -3.19,0.56c-6.82,0.3 -13.05,2.39 -18.57,6.37c-7.27,5.24 -14.42,10.67 -21.69,15.91a1617.27,1617.27 0 0 1 -23.59,16.68c-7.79,5.41 -16.06,10 -24.6,14.15c-6.51,3.16 -13.26,5.23 -20.44,6.01c-0.17,0.02 -0.35,0.11 -0.49,0.06c-3.88,-1.41 -8.08,-0.29 -11.97,-1.52c-0.74,-0.23 -1.42,-0.64 -2.13,-0.97l0.09,-0.54c0.89,-0.13 1.78,-0.34 2.68,-0.39c14.44,-0.79 28.23,-4 41.09,-10.83c11.09,-5.89 21.43,-12.92 31.48,-20.38c10.09,-7.49 20.02,-15.19 30.12,-22.66c7.11,-5.26 14.94,-9.09 23.72,-10.67c1.32,-0.24 2.66,-0.29 4.01,-0.35a763.141,763.141 0 0 1 -38.55,-11.12c-39.68,-12.6 -78.03,-28.44 -115.41,-46.73c-5.67,-2.77 -5.97,-4.45 -0.44,-7.78c8.38,-5.05 16.4,-10.71 24.61,-16.04c2.19,-1.42 4.28,-3.46 7.29,-2.27c8.72,3.44 66.89,24.3 75.62,27.76c-0.24,0.63 -49.94,-16.14 -50.18,-15.51c-8.05,-2.5 -16.1,-5 -25.81,-8.01c7.95,12.34 15,22.92 21.63,33.75c2.8,4.57 6.42,7.31 11.37,9.24c30.15,11.74 60.72,22.24 91.84,31.08c9.18,2.61 18.27,6.18 29.2,6.69c-7.76,-13.97 -14.98,-26.89 -22.13,-39.86c-1.43,-2.59 -3.88,-3.58 -6.34,-4.6c-41.08,-17.13 -82.2,-34.18 -123.23,-51.43c-4.06,-1.7 -7.05,-1.37 -10.64,1.09c-11.02,7.54 -22.48,14.47 -33.38,22.17c-5.43,3.84 -9.74,3.52 -15.3,0.27c-13.43,-7.86 -26.63,-16.08 -39.65,-26.04c-2.29,11.27 -1.63,19.52 7.16,27.33c16.17,14.38 41.83,26.57 61.32,35.72c2.69,1.26 17.33,9.15 19.9,10.61c2.28,1.3 32.33,15.99 33.96,19.61c-28.65,-10.1 -101.2,-46.07 -124.28,-67.42c-0.62,8.19 -0.72,14.66 -1.69,20.99c-1.38,9.07 1.99,14.82 9.71,19.76c12.09,7.73 74.58,31.74 87.15,38.59c-16.48,-4.06 -80.91,-29.76 -96.17,-38.6c0.15,8.14 2.4,14.88 3.52,21.8l-9.28,-31.95c-0.57,-22.56 -0.19,-45.13 -0.5,-67.7c-0.13,-10.09 -8.11,-16.04 -17.99,-14.15c-4.28,0.82 -6.01,2.58 -4.61,7.29c3.15,10.61 3.72,21.6 4.12,32.61c0.79,21.97 1.85,43.94 5.9,65.61c1.87,10.02 4.48,19.69 7.95,29.03c0.16,-0.08 0.34,-0.16 0.57,-0.24c1.96,-0.63 4.02,-0.95 6.15,-1.43c1.09,1 2.13,1.67 2.78,2.6c1.54,2.23 2.36,2.61 4.79,1.74c3.03,-1.08 4.96,-0.54 6.87,1.99c0.82,1.09 1.83,1.68 3.23,1.7c0.47,0.01 0.94,0.47 1.41,0.73c-0.47,0.45 -0.9,1.25 -1.41,1.3c-2.58,0.25 -5.18,0.47 -7.76,0.36c-1,-0.04 -2.18,-0.76 -2.91,-1.52c-1.96,-2.05 -2.15,-2.11 -4.85,-1.34c-1.52,0.43 -3.14,0.56 -4.73,0.7c-1.06,0.1 -1.58,-0.42 -1.88,-1.59c-0.19,-0.72 -0.61,-1.43 -1.12,-2.05c6.81,17.24 16.68,33.29 30.53,48.15c-12.09,0.61 -22.27,-0.87 -33.58,4.1c13.18,0.97 24.82,1.09 35.22,5.17c25.19,9.87 49.77,8.31 74.84,-0.09c20.07,-6.72 40.22,-6.69 60.04,1.92c12.53,5.44 25.52,5.36 38.35,1.19c21.38,-6.95 42.89,-8.95 64.88,-3.2c2.53,0.66 5.45,1.13 10.63,-1.75c-16.74,-2.14 -10.28,-9.62 -6.98,-16.51c2.69,-5.62 4.96,-11.44 7.69,-17.04c2.94,-6.04 2.59,-9.09 -5.44,-8.89c-7.19,0.18 -45.4,-8.83 -52.61,-9.47c8.95,-1.15 48.79,6.66 57.66,6.93c6.79,0.21 6.28,-5.52 7.19,-9.35c1.05,-4.49 -3.36,-3.89 -6.01,-4.41zm-114.04,9.98c2.03,-1.46 4.22,-2.62 6.78,-2.69c0.77,-0.02 1.7,0.15 2.3,0.59c1.15,0.84 2.01,2.1 3.19,2.87c0.64,0.42 1.7,0.21 2.58,0.26c0.64,0.04 1.28,0.06 1.91,0.09c-0.36,0.61 -0.58,1.56 -1.1,1.77c-3.08,1.24 -6.11,2.87 -10.25,1.96c-0.7,-0.51 -1.81,-1.38 -2.99,-2.15c-0.61,-0.4 -1.35,-0.59 -2.01,-0.92c-0.36,-0.18 -0.9,-0.41 -0.96,-0.7c-0.06,-0.32 0.24,-0.86 0.55,-1.08zm-8.54,1.08c2.19,-0.73 4.23,-0.44 5.68,1.1c1.49,1.58 1.47,3.73 0.6,5.78c-1.36,3.21 -3.63,5.68 -6.37,7.72c-6.48,4.81 -13.74,8.01 -21.51,10.1c-1.6,0.43 -3.22,0.82 -4.85,1.06c-0.99,0.14 -2.03,-0.04 -3.05,-0.07c-0.05,-0.25 -0.11,-0.5 -0.16,-0.74c0.99,-0.39 1.96,-0.86 2.98,-1.14c8.31,-2.31 16.29,-5.4 23.36,-10.44c1.69,-1.21 3.2,-2.73 4.59,-4.29c0.9,-1.01 1.63,-2.39 0.71,-3.79c-0.91,-1.39 -2.43,-1.96 -3.93,-1.46c-2.77,0.92 -5.54,1.94 -8.13,3.27c-8.49,4.35 -16.34,9.73 -23.97,15.45c-4.38,3.28 -8.86,6.45 -13.35,9.58c-0.72,0.5 -1.76,0.55 -2.66,0.81c-0.29,-1.41 1.04,-1.54 1.73,-2.06c8.63,-6.47 17.16,-13.09 26,-19.25c6.92,-4.82 14.27,-8.94 22.33,-11.63zm-131.64,27.3c-3.69,-1.07 -6.89,-2.84 -9.7,-5.39c-4.46,-4.05 -5.53,-9.66 -2.58,-14.91c2.66,-4.73 6.42,-8.28 11.72,-9.98c4,-1.29 7.7,-0.09 11.28,1.42c2.95,1.25 5.79,2.78 8.55,4.42c3.06,1.82 6.38,2.41 9.81,2.79c2.15,0.24 4.29,0.86 6.48,0.15c0.28,-0.09 0.68,0.21 1.02,0.33c-0.26,0.31 -0.49,0.64 -0.78,0.92c-0.1,0.1 -0.32,0.17 -0.46,0.15c-3.03,-0.44 -5.94,1.3 -9,0.42c-2.91,-0.84 -5.92,-1.38 -8.75,-2.43c-3.47,-1.28 -6.77,-2.99 -10.18,-4.42c-7.25,-3.03 -12.29,-0.68 -16.73,5.29c-4.13,5.54 -2.57,12.37 3.68,16.23c5.47,3.37 11.51,4.11 17.77,3.44c8.54,-0.91 16.38,-3.93 24.1,-7.6c7.34,-3.48 14.95,-6.41 22.5,-9.43c1.71,-0.69 3.65,-0.83 5.5,-1.09c0.45,-0.06 0.97,0.4 1.45,0.62c-0.31,0.54 -0.48,1.33 -0.94,1.57c-1.12,0.58 -2.39,0.86 -3.57,1.33c-8.78,3.52 -17.64,6.87 -26.32,10.63c-8.38,3.63 -16.99,6.08 -26.12,6.36c-2.89,0.07 -5.81,-0.54 -8.73,-0.82zm28.92,2.6c-0.23,-0.24 -0.5,-0.5 -0.58,-0.8c-0.18,-0.65 -0.25,-1.33 -0.36,-2c0.61,0.23 1.34,0.32 1.82,0.72c5.65,4.67 11.76,5.48 18.61,2.81c6.74,-2.63 12.55,-6.75 18.4,-10.82c5.23,-3.64 10.54,-7.12 16.34,-9.79c0.35,-0.16 0.71,-0.4 1.07,-0.42c0.54,-0.03 1.08,0.09 1.62,0.15c-0.26,0.51 -0.39,1.2 -0.8,1.49c-1.89,1.35 -3.85,2.6 -5.79,3.87c-6.75,4.44 -13.37,9.08 -20.3,13.22c-3.95,2.36 -8.32,4.11 -12.65,5.74c-3.31,1.25 -6.85,1.11 -10.52,0.02c-2.81,-0.23 -4.9,-2.11 -6.86,-4.19zm28.21,19.31c-0.09,0.37 -0.72,0.75 -1.18,0.87c-1.81,0.47 -3.64,0.88 -5.48,1.21c-0.67,0.12 -1.51,0.15 -2.08,-0.15c-1.64,-0.85 -3.17,-1.93 -4.79,-2.82c-0.38,-0.21 -1.07,-0.23 -1.43,-0.02c-2.41,1.4 -4.78,1.63 -7.16,-0.02c-1.4,-0.97 -2.84,-1.89 -4.18,-2.96c-0.25,-0.19 -0.2,-1.31 -0.05,-1.37c2.98,-1.18 5.28,-4.25 9.23,-3.57c0.73,0.7 1.51,1.38 2.19,2.13c0.4,0.44 0.63,1.04 1,1.52c1.39,1.79 1.86,1.71 3.62,0.34c2.51,-1.96 4.46,-2.26 6.23,0.56c0.77,1.23 2.23,2.02 3.33,3.06c0.34,0.33 0.83,0.89 0.75,1.22zm-3.83,-9.64c-0.44,0 -0.88,-0.02 -1.62,-0.04c-0.26,-0.28 -0.63,-0.7 -1,-1.11c0.55,-0.29 1.09,-0.78 1.67,-0.83c4.99,-0.49 9.73,-1.93 13.95,-4.53c4.56,-2.8 8.9,-5.99 13.21,-9.17c6.1,-4.5 11.98,-9.29 18.16,-13.66c2.82,-1.99 6.13,-3.28 9.25,-4.83c0.42,-0.21 1.01,-0.06 1.52,-0.08c-0.21,0.52 -0.28,1.22 -0.67,1.52a23.2,23.2 0 0 1 -3.45,2.29c-6.11,3.32 -11.46,7.72 -17,11.85c-6.56,4.89 -13.13,9.78 -19.91,14.37c-4.17,2.82 -8.97,4.27 -14.11,4.22z"/>
  <path id="svg_2" fill="#364ca0" d="m257.25635,28.37852c-3.48,0.44 -4.14,2.19 -4.14,2.19c3.76,5.17 12.51,2.65 12.51,2.65c-0.15,2.42 -3.19,3.8 -3.19,3.8c1.12,2.26 -2.28,2.68 -2.28,2.68c-0.23,1.24 -2.02,0.97 -2.02,0.97s-0.52,-5.65 -9.2,-5.81c-8.27,-0.16 -10.42,-8.94 -9.89,-12.52c0.53,-3.57 -2.72,-4.16 -2.72,-4.16c1.51,-0.38 2.19,-1.2 2.19,-1.2c1.48,-1.43 6.36,-1.41 6.41,2.74c0.06,4.16 3.26,4.59 3.26,4.59c1.03,-0.1 2.01,-3.67 5.08,-4.59c3.28,-0.99 7.83,-1.2 11.96,-7.44c0,0 1.48,3.23 -1.24,4.9c0,0 1.34,0.47 1.2,0.86c-0.14,0.39 -0.38,2.34 -3.16,3.9c0,0 1.84,0.05 1.33,0.77c-0.5,0.72 -4.36,3.6 -4.36,3.6s1.61,-0.79 1.02,0.3c-0.05,0.1 -0.11,0.19 -0.17,0.28c-0.58,0.86 -1.56,1.36 -2.59,1.49zm-19.49,-13.69c-0.55,0.51 -0.59,0.98 -0.59,0.98c0.81,-0.04 1.51,-1.52 1.51,-1.52s-0.37,0.03 -0.92,0.54zm0.15,-1.99s-0.3,0.02 -0.72,0.42c-0.43,0.4 -0.46,0.77 -0.46,0.77c0.64,-0.03 1.18,-1.19 1.18,-1.19z" class="st2"/>
  <path id="svg_3" fill="#364ca0" d="m236.24635,11.90852c0.06,-0.44 -0.06,-0.63 -0.06,-0.63s-0.36,0.65 -0.28,1.08c0,0.01 0.01,0.02 0.01,0.02c0.01,0.05 0.03,0.1 0.05,0.14l0.02,-0.02c0.11,0.19 0.22,0.37 0.31,0.56c-0.07,-0.1 -0.23,-0.3 -0.58,-0.45c-0.49,-0.22 -0.75,-0.15 -0.75,-0.15s0.8,0.82 1.36,0.67c0.21,0.44 0.36,0.89 0.47,1.33c-0.1,-0.1 -0.24,-0.22 -0.47,-0.33c-0.49,-0.22 -0.75,-0.15 -0.75,-0.15s0.72,0.73 1.27,0.68c0.15,0.65 0.21,1.3 0.21,1.91c-0.1,-0.17 -0.28,-0.4 -0.61,-0.62c-0.62,-0.42 -1,-0.39 -1,-0.39s0.83,1.21 1.61,1.26c-0.06,2.27 -0.87,4.04 -0.87,4.04l0.33,0.17c1.43,-3.74 0.61,-6.7 -0.45,-8.65c0.07,-0.07 0.15,-0.23 0.18,-0.47zm103.45,-6.59l2.58,0l0,189.58l-2.58,0l0,-189.58z" class="st2"/>
  <text id="svg_4" x="430.93837" y="182.56653" fill="#364ca0" font-family="'Bellarina'" font-size="41.9273px" class="st2">journey to excellence</text>
  <path id="svg_5" fill="#364ca0" d="m399.21635,33.97852l0,-0.3l15.1,0c1,1.36 2.29,2.99 3.87,4.91c1.58,1.91 3,3.56 4.23,4.93l13.4,14.89a746.7,746.7 0 0 0 4.14,4.49c0.99,1.06 2.27,2.34 3.84,3.86c0.12,-1.38 0.2,-2.66 0.24,-3.86c0.04,-1.2 0.06,-2.32 0.06,-3.38l0,-12.92c0,-4.65 -0.23,-8.48 -0.69,-11.51l-7.27,-1.11l0,-0.3l17.79,0l0,0.3l-7.27,1.17c-0.38,2.79 -0.57,6.36 -0.57,10.71l0,32.78l-0.3,0c-3.05,-3.87 -6.07,-7.49 -9.06,-10.86l-18.3,-20.4c-2.71,-2.89 -5.02,-5.19 -6.94,-6.91c-0.28,2.71 -0.42,5.24 -0.42,7.6l0,18.93c0,2.53 0.2,5.55 0.6,9.06l7.6,1.11l0,0.3l-18.18,0l0,-0.3l7.36,-1.05c0.24,-1.44 0.41,-3.48 0.51,-6.13c0.1,-2.65 0.15,-5.01 0.15,-7.09l0,-14.65c0,-1.73 -0.03,-3.45 -0.09,-5.16c-0.06,-1.7 -0.17,-3.39 -0.33,-5.07l-3.98,-2.93l-5.49,-1.11zm8.95,0.8l36.13,40.16l0,-2.81l-33.61,-37.35l-2.52,0zm74.05,-1.55l12.95,30.89c1.67,4.03 3.63,8.02 5.86,11.99l4.96,1.05l0,0.3l-21.11,0l0,-0.3l8.13,-1.05c-0.3,-1.97 -0.85,-4.12 -1.66,-6.44c-0.81,-2.32 -1.7,-4.34 -2.68,-6.06l-18.75,0c-0.8,2.01 -1.44,3.67 -1.93,4.96a86.3,86.3 0 0 0 -1.41,4.04c-0.45,1.4 -0.74,2.56 -0.88,3.5l7.84,1.05l0,0.3l-16.72,0l0,-0.3l5.5,-1.05c1.34,-2.31 2.56,-4.86 3.68,-7.66l13.85,-35.23l2.37,0l0,0.01zm-3.17,8.4c-0.54,1.06 -1.25,2.6 -2.14,4.64c-0.89,2.03 -1.69,3.94 -2.41,5.71c-0.72,1.77 -1.47,3.66 -2.24,5.67c-0.78,2 -1.3,3.33 -1.56,3.96c1.18,0.16 2.55,0.27 4.11,0.33c1.57,0.06 3.06,0.09 4.47,0.09c3.49,0 6.35,-0.14 8.58,-0.42c-0.76,-2.25 -2.04,-5.46 -3.86,-9.61c-1.8,-4.16 -3.46,-7.62 -4.95,-10.37zm0.47,-2.51l15.52,37.17l2,0l-16.54,-39.69l-0.98,2.52zm34.93,27.87l2.27,7.36c1.14,0.52 2.47,0.94 3.99,1.26c1.53,0.32 2.85,0.47 3.96,0.45c1.49,0 2.87,-0.26 4.11,-0.78c1.25,-0.52 2.26,-1.18 3.05,-1.97c0.79,-0.8 1.39,-1.7 1.81,-2.71c0.42,-1.01 0.63,-1.99 0.63,-2.95c0,-1.97 -0.67,-3.64 -2,-4.99c-1.34,-1.36 -3.57,-3.09 -6.71,-5.2c-3.14,-2.11 -5.42,-3.88 -6.83,-5.29c-1.22,-1.26 -2.12,-2.52 -2.72,-3.78c-0.6,-1.27 -0.9,-2.68 -0.9,-4.23c0,-1.71 0.47,-3.42 1.41,-5.11c0.94,-1.69 2.38,-3.11 4.34,-4.23c1.95,-1.13 4.36,-1.69 7.21,-1.69c1.3,0 2.67,0.06 4.13,0.19c1.45,0.13 2.46,0.19 3.02,0.19c0.48,-0.02 0.93,-0.03 1.35,-0.04c0.42,-0.01 0.75,-0.03 1,-0.06s0.51,-0.06 0.79,-0.1l0.18,10.23l-0.39,0l-1.88,-6.91c-2.77,-1.22 -5.18,-1.82 -7.24,-1.82c-1.71,0 -3.26,0.32 -4.62,0.97c-1.37,0.65 -2.43,1.54 -3.19,2.66c-0.76,1.13 -1.14,2.4 -1.14,3.81c0,1.48 0.51,2.83 1.53,4.05c1.02,1.23 2.41,2.43 4.17,3.6c1.76,1.18 3.66,2.42 5.68,3.74c2.02,1.32 3.64,2.58 4.86,3.8c2.37,2.37 3.56,5.11 3.56,8.22c0,1.76 -0.46,3.56 -1.37,5.43c-0.92,1.86 -2.46,3.44 -4.64,4.74c-2.17,1.3 -4.98,1.94 -8.43,1.94c-1.22,0 -2.7,-0.07 -4.44,-0.21c-1.74,-0.14 -3.03,-0.21 -3.84,-0.21c-0.38,0 -0.67,0.01 -0.88,0.03l-0.97,0.09c-0.44,0.04 -0.7,0.06 -0.78,0.06l-0.48,-10.53l0.4,0l0,-0.01zm14.62,-33.25l-0.96,0c-2.19,0 -4.22,0.44 -6.07,1.32c-1.85,0.88 -3.32,2.12 -4.4,3.74c-1.08,1.61 -1.61,3.44 -1.61,5.47c0,2.53 1.11,4.9 3.32,7.12c0.98,0.94 1.89,1.73 2.74,2.36c0.85,0.64 2.13,1.54 3.84,2.71s3.09,2.12 4.11,2.87c1.03,0.75 1.87,1.46 2.53,2.14c1.79,1.79 2.69,3.8 2.69,6.01c0,1.52 -0.41,2.98 -1.24,4.38c-0.83,1.41 -2.02,2.55 -3.59,3.44c-1.57,0.89 -3.41,1.34 -5.52,1.36l0,0.33c2.43,0.08 4.6,-0.35 6.5,-1.29c1.9,-0.94 3.36,-2.17 4.37,-3.71c1.01,-1.54 1.51,-3.12 1.51,-4.76c0,-1.41 -0.23,-2.7 -0.69,-3.86c-0.46,-1.16 -1.3,-2.34 -2.51,-3.56c-0.7,-0.7 -1.95,-1.67 -3.77,-2.92c-1.81,-1.25 -3.65,-2.5 -5.5,-3.77s-3.21,-2.31 -4.07,-3.13c-2.09,-2.07 -3.14,-4.36 -3.14,-6.85c0,-2.19 0.95,-4.24 2.86,-6.13c1.9,-1.89 4.77,-2.89 8.6,-2.99l0,-0.28zm18.99,0.24l0,-0.3l31.85,0l0.75,9.3l-0.48,0l-2.15,-7.3c-1.69,-0.12 -3.6,-0.18 -5.71,-0.18c-3.85,0 -6.95,0.27 -9.3,0.81c-0.4,3.23 -0.6,6.92 -0.6,11.06c0,2.59 0.08,4.7 0.24,6.31c3.15,0.18 5.15,0.27 6.01,0.27c2.25,0 4.58,-0.13 6.97,-0.39l1.35,-5.08l0.51,0l0,12.74l-0.51,0l-1.41,-5.38c-1.73,-0.2 -3.65,-0.3 -5.74,-0.3c-2.63,0 -5.02,0.12 -7.18,0.36c-0.26,2.31 -0.34,4.58 -0.24,6.79c0.04,2.83 0.09,5.17 0.15,7.01c0.06,1.84 0.17,3.43 0.33,4.77c2.43,0.74 5.62,1.11 9.57,1.11c2.27,0 4.19,-0.09 5.74,-0.27l2.39,-7.21l0.42,0l-0.66,9.36l-32.21,0l0,-0.3l7.15,-1.05c0.16,-0.82 0.3,-2.06 0.43,-3.74c0.13,-1.67 0.24,-3.55 0.34,-5.64c0.1,-2.08 0.17,-3.83 0.21,-5.23c0.04,-1.41 0.06,-2.64 0.06,-3.69l0,-7.54c0,-0.96 -0.03,-2.32 -0.09,-4.08c-0.06,-1.76 -0.15,-3.59 -0.27,-5.49c-0.12,-1.89 -0.29,-3.79 -0.51,-5.68l-7.41,-1.04zm9.09,0.86l0,41.45l2.06,0l0,-41.45l-2.06,0zm32.14,-0.86l0,-0.3l31.85,0l0.75,9.3l-0.48,0l-2.15,-7.3c-1.69,-0.12 -3.6,-0.18 -5.71,-0.18c-3.85,0 -6.95,0.27 -9.3,0.81c-0.4,3.23 -0.6,6.92 -0.6,11.06c0,2.59 0.08,4.7 0.24,6.31c3.15,0.18 5.15,0.27 6.01,0.27c2.25,0 4.58,-0.13 6.97,-0.39l1.35,-5.08l0.51,0l0,12.74l-0.51,0l-1.41,-5.38c-1.73,-0.2 -3.65,-0.3 -5.74,-0.3c-2.63,0 -5.02,0.12 -7.18,0.36c-0.26,2.31 -0.34,4.58 -0.24,6.79c0.04,2.83 0.09,5.17 0.15,7.01c0.06,1.84 0.17,3.43 0.33,4.77c2.43,0.74 5.62,1.11 9.57,1.11c2.27,0 4.19,-0.09 5.74,-0.27l2.39,-7.21l0.42,0l-0.66,9.36l-32.21,0l0,-0.3l7.15,-1.05c0.16,-0.82 0.3,-2.06 0.43,-3.74c0.13,-1.67 0.24,-3.55 0.34,-5.64c0.1,-2.08 0.17,-3.83 0.21,-5.23c0.04,-1.41 0.06,-2.64 0.06,-3.69l0,-7.54c0,-0.96 -0.03,-2.32 -0.09,-4.08c-0.06,-1.76 -0.15,-3.59 -0.27,-5.49c-0.12,-1.89 -0.29,-3.79 -0.51,-5.68l-7.41,-1.04zm9.09,0.86l0,41.45l2.06,0l0,-41.45l-2.06,0zm32.36,-1.16l21.74,0l0,0.3l-7.93,1.05c-0.22,1.1 -0.4,3.03 -0.55,5.8c-0.15,2.77 -0.22,5.12 -0.22,7.06c0,1.67 0.06,3.74 0.18,6.19c2.91,0.56 7.28,0.84 13.1,0.84c2.89,0 5.6,-0.06 8.13,-0.18c2.53,-0.12 4.84,-0.34 6.94,-0.66c0.16,-1.93 0.24,-4.25 0.24,-6.94c0,-1.59 -0.05,-3.19 -0.13,-4.8c-0.09,-1.6 -0.18,-2.9 -0.28,-3.87c-0.1,-0.98 -0.24,-2.14 -0.42,-3.5l-7.93,-0.99l0,-0.3l21.74,0l0,0.3l-6.1,0.99c-0.32,1.48 -0.55,3.96 -0.7,7.46c-0.15,3.5 -0.22,6.89 -0.22,10.18l0,10.02c0,6 0.31,10.5 0.93,13.49l6.16,1.05l0,0.3l-21.8,0l0,-0.3l7.78,-1.05c0.56,-3.39 0.89,-7.11 0.99,-11.15c0.04,-1.04 0.04,-2.3 0,-3.78a98.02,98.02 0 0 0 -0.24,-4.65l-28.23,0c-0.08,1.5 -0.12,3.84 -0.12,7.03c0,1.89 0.06,4.1 0.19,6.62c0.13,2.52 0.35,4.5 0.67,5.94l7.84,1.05l0,0.3l-21.8,0l0,-0.3l6.04,-1.05c0.14,-0.8 0.29,-2.23 0.45,-4.29s0.29,-4.39 0.39,-6.97c0.1,-2.58 0.15,-4.75 0.15,-6.5l0,-11.04c0,-0.32 -0.03,-1.37 -0.09,-3.15c-0.06,-1.78 -0.16,-3.56 -0.31,-5.32c-0.15,-1.76 -0.3,-3.05 -0.46,-3.87l-6.1,-0.99l0,-0.32l-0.03,0zm7.83,1.16l0,41.45l2.06,0l0,-41.45l-2.06,0zm34.6,-0.06l0,41.51l2.09,0l0,-41.51l-2.09,0zm44.5,-1.55l12.95,30.89c1.67,4.03 3.63,8.02 5.86,11.99l4.96,1.05l0,0.3l-21.11,0l0,-0.3l8.13,-1.05c-0.3,-1.97 -0.85,-4.12 -1.66,-6.44c-0.81,-2.32 -1.7,-4.34 -2.68,-6.06l-18.75,0c-0.8,2.01 -1.44,3.67 -1.93,4.96a86.3,86.3 0 0 0 -1.41,4.04c-0.45,1.4 -0.74,2.56 -0.88,3.5l7.84,1.05l0,0.3l-16.72,0l0,-0.3l5.5,-1.05c1.34,-2.31 2.56,-4.86 3.68,-7.66l13.85,-35.23l2.37,0l0,0.01zm-3.17,8.4c-0.54,1.06 -1.25,2.6 -2.14,4.64c-0.89,2.03 -1.69,3.94 -2.41,5.71c-0.72,1.77 -1.47,3.66 -2.24,5.67c-0.78,2 -1.3,3.33 -1.55,3.96c1.18,0.16 2.55,0.27 4.11,0.33c1.56,0.06 3.05,0.09 4.47,0.09c3.49,0 6.35,-0.14 8.58,-0.42c-0.76,-2.25 -2.04,-5.46 -3.86,-9.61c-1.81,-4.16 -3.47,-7.62 -4.96,-10.37zm0.48,-2.51l15.52,37.17l2,0l-16.54,-39.69l-0.98,2.52zm-293.37,99.13l-22.61,0l0,-0.3l7.3,-1.11c0.34,-2.49 0.59,-5.5 0.76,-9.02s0.25,-6.96 0.25,-10.33l0,-5.02c0,-6.84 -0.3,-12.39 -0.9,-16.66l-7.42,-1.05l0,-0.3l22.61,0l0,0.3l-7.48,1.05c-0.22,1.93 -0.38,3.68 -0.48,5.25c-0.1,1.56 -0.19,3.46 -0.27,5.68c-0.08,2.22 -0.12,4.31 -0.12,6.27l0,6.61c0,1.22 0.05,3.21 0.13,5.97c0.09,2.76 0.21,5.1 0.36,7.01c0.15,1.91 0.29,3.35 0.43,4.31l7.42,1.05l0,0.29l0.02,0zm-13.49,-42.61l0,41.45l2.09,0l0,-41.45l-2.09,0zm20.27,-0.87l0,-0.3l15.1,0c1,1.36 2.29,2.99 3.87,4.9c1.59,1.91 3,3.56 4.23,4.93l13.4,14.89a746.7,746.7 0 0 0 4.14,4.49c0.99,1.06 2.27,2.34 3.84,3.86c0.12,-1.38 0.2,-2.66 0.24,-3.86c0.04,-1.2 0.06,-2.32 0.06,-3.38l0,-12.92c0,-4.65 -0.23,-8.48 -0.69,-11.51l-7.27,-1.11l0,-0.3l17.79,0l0,0.3l-7.27,1.17c-0.38,2.79 -0.57,6.36 -0.57,10.71l0,32.78l-0.3,0c-3.05,-3.87 -6.07,-7.49 -9.06,-10.86l-18.3,-20.4c-2.71,-2.89 -5.02,-5.19 -6.94,-6.91c-0.28,2.71 -0.42,5.24 -0.42,7.6l0,18.93c0,2.53 0.2,5.55 0.6,9.06l7.6,1.11l0,0.3l-18.18,0l0,-0.3l7.36,-1.05c0.24,-1.44 0.41,-3.48 0.51,-6.13c0.1,-2.65 0.15,-5.01 0.15,-7.09l0,-14.65c0,-1.73 -0.03,-3.45 -0.09,-5.16c-0.06,-1.7 -0.17,-3.39 -0.33,-5.07l-3.98,-2.93l-5.49,-1.1zm8.94,0.81l36.13,40.16l0,-2.81l-33.61,-37.35l-2.52,0zm54.36,32.2l2.27,7.36c1.14,0.52 2.47,0.94 3.99,1.26c1.52,0.32 2.85,0.47 3.96,0.45c1.5,0 2.87,-0.26 4.11,-0.78c1.25,-0.52 2.26,-1.18 3.05,-1.97c0.79,-0.8 1.39,-1.7 1.81,-2.71c0.42,-1.01 0.63,-1.99 0.63,-2.95c0,-1.97 -0.67,-3.64 -2,-4.99c-1.34,-1.36 -3.57,-3.09 -6.71,-5.2c-3.14,-2.11 -5.42,-3.88 -6.83,-5.29c-1.22,-1.26 -2.12,-2.52 -2.72,-3.78c-0.6,-1.27 -0.9,-2.68 -0.9,-4.23c0,-1.71 0.47,-3.42 1.41,-5.11c0.94,-1.69 2.38,-3.11 4.34,-4.23c1.95,-1.13 4.36,-1.69 7.21,-1.69c1.3,0 2.67,0.07 4.13,0.19c1.46,0.13 2.46,0.19 3.02,0.19c0.48,-0.02 0.93,-0.03 1.35,-0.05c0.42,-0.01 0.75,-0.03 1,-0.06s0.51,-0.06 0.79,-0.1l0.18,10.23l-0.39,0l-1.88,-6.91c-2.77,-1.22 -5.18,-1.82 -7.24,-1.82c-1.72,0 -3.26,0.32 -4.62,0.97c-1.37,0.65 -2.43,1.54 -3.19,2.66c-0.76,1.13 -1.14,2.4 -1.14,3.81c0,1.48 0.51,2.83 1.53,4.05c1.02,1.23 2.41,2.43 4.17,3.6c1.76,1.18 3.66,2.42 5.68,3.74c2.02,1.32 3.64,2.58 4.86,3.8c2.37,2.37 3.56,5.11 3.56,8.22c0,1.75 -0.46,3.56 -1.38,5.43c-0.92,1.86 -2.46,3.44 -4.64,4.74c-2.17,1.3 -4.98,1.94 -8.43,1.94c-1.22,0 -2.7,-0.07 -4.44,-0.21c-1.74,-0.14 -3.03,-0.21 -3.84,-0.21c-0.38,0 -0.67,0.01 -0.88,0.03l-0.97,0.09c-0.44,0.04 -0.7,0.06 -0.78,0.06l-0.48,-10.53l0.41,0zm14.63,-33.25l-0.96,0c-2.19,0 -4.22,0.44 -6.07,1.32c-1.85,0.88 -3.32,2.12 -4.4,3.74c-1.08,1.62 -1.62,3.44 -1.62,5.47c0,2.53 1.11,4.9 3.32,7.12c0.98,0.94 1.89,1.72 2.74,2.36c0.85,0.64 2.13,1.54 3.84,2.71s3.09,2.12 4.11,2.87c1.03,0.75 1.87,1.46 2.53,2.14c1.79,1.79 2.69,3.8 2.69,6.01c0,1.52 -0.41,2.98 -1.24,4.38c-0.83,1.41 -2.02,2.55 -3.59,3.44c-1.57,0.89 -3.4,1.34 -5.52,1.36l0,0.33c2.43,0.08 4.6,-0.35 6.5,-1.29s3.36,-2.17 4.37,-3.71c1.01,-1.54 1.51,-3.12 1.51,-4.76c0,-1.42 -0.23,-2.7 -0.69,-3.86c-0.46,-1.16 -1.3,-2.34 -2.51,-3.56c-0.7,-0.7 -1.95,-1.67 -3.77,-2.92c-1.81,-1.25 -3.65,-2.5 -5.5,-3.77s-3.21,-2.31 -4.07,-3.13c-2.09,-2.07 -3.14,-4.36 -3.14,-6.85c0,-2.19 0.95,-4.24 2.86,-6.13c1.9,-1.89 4.77,-2.89 8.6,-2.99l0,-0.28l0.01,0zm25.68,-0.06l25.96,0c1.57,0 3.02,-0.05 4.34,-0.13c1.32,-0.09 3.01,-0.23 5.08,-0.43l0.69,9.69l-0.36,0l-2.21,-7.06c-1.81,-0.32 -3.71,-0.48 -5.68,-0.48c-1.7,0 -3.24,0.09 -4.64,0.27c-1.4,0.18 -2.9,0.48 -4.52,0.9c-0.16,1.85 -0.28,3.64 -0.36,5.37c-0.08,1.72 -0.14,3.32 -0.18,4.78c-0.04,1.47 -0.06,2.47 -0.06,3.01l0,9.93c0,2.61 0.09,5.54 0.27,8.78c0.18,3.24 0.4,5.83 0.66,7.76l7.39,1.11l0,0.3l-22.58,0l0,-0.3l7.27,-1.11c0.62,-4.41 0.93,-9.74 0.93,-16l0,-10.84c0,-2.23 -0.05,-4.44 -0.15,-6.61c-0.1,-2.17 -0.27,-4.24 -0.51,-6.19c-1.16,-0.32 -2.5,-0.57 -4.04,-0.76c-1.54,-0.19 -2.99,-0.3 -4.37,-0.34c-2.17,0 -4.32,0.18 -6.43,0.54l-2.15,7.12l-0.42,0l0.66,-9.81c0.6,0.04 1.47,0.13 2.6,0.28c1.14,0.14 2.07,0.22 2.81,0.22zm12.92,1.11l0,41.51l2,0l0,-41.51l-2,0zm53.62,42.67l-22.61,0l0,-0.3l7.3,-1.11c0.34,-2.49 0.59,-5.5 0.76,-9.02c0.17,-3.52 0.25,-6.96 0.25,-10.33l0,-5.02c0,-6.84 -0.3,-12.39 -0.9,-16.66l-7.42,-1.05l0,-0.3l22.61,0l0,0.3l-7.48,1.05c-0.22,1.93 -0.38,3.68 -0.48,5.25c-0.1,1.56 -0.19,3.46 -0.27,5.68c-0.08,2.22 -0.12,4.31 -0.12,6.27l0,6.61c0,1.22 0.04,3.21 0.13,5.97s0.21,5.1 0.36,7.01c0.15,1.91 0.29,3.35 0.43,4.31l7.42,1.05l0,0.29l0.02,0zm-13.49,-42.61l0,41.45l2.09,0l0,-41.45l-2.09,0zm26.82,-1.17l25.96,0c1.57,0 3.02,-0.05 4.34,-0.13c1.32,-0.09 3.01,-0.23 5.08,-0.43l0.69,9.69l-0.36,0l-2.21,-7.06c-1.81,-0.32 -3.71,-0.48 -5.68,-0.48c-1.7,0 -3.24,0.09 -4.64,0.27c-1.4,0.18 -2.9,0.48 -4.52,0.9c-0.16,1.85 -0.28,3.64 -0.36,5.37c-0.08,1.72 -0.14,3.32 -0.18,4.78c-0.04,1.47 -0.06,2.47 -0.06,3.01l0,9.93c0,2.61 0.09,5.54 0.27,8.78c0.18,3.24 0.4,5.83 0.66,7.76l7.39,1.11l0,0.3l-22.58,0l0,-0.3l7.27,-1.11c0.62,-4.41 0.93,-9.74 0.93,-16l0,-10.84c0,-2.23 -0.05,-4.44 -0.15,-6.61c-0.1,-2.17 -0.27,-4.24 -0.51,-6.19c-1.16,-0.32 -2.5,-0.57 -4.04,-0.76c-1.54,-0.19 -2.99,-0.3 -4.37,-0.34c-2.17,0 -4.32,0.18 -6.43,0.54l-2.15,7.12l-0.42,0l0.66,-9.81c0.6,0.04 1.47,0.13 2.6,0.28c1.14,0.14 2.07,0.22 2.81,0.22zm12.92,1.11l0,41.51l2,0l0,-41.51l-2,0zm38.03,29.99l0,-16.66c0,-3.71 -0.24,-8.09 -0.72,-13.16l-6.25,-0.99l0,-0.3l21.8,0l0,0.3l-7.9,0.99c-0.2,1.4 -0.36,3.07 -0.48,5.02c-0.12,1.95 -0.22,4.04 -0.31,6.25s-0.13,3.99 -0.13,5.32l0,12.29c0,2.93 0.59,5.29 1.78,7.07c1.19,1.78 2.75,3.05 4.69,3.78c1.94,0.74 4.09,1.11 6.44,1.11c4.01,0 7.15,-1.02 9.44,-3.05c2.28,-2.03 3.42,-5.32 3.42,-9.87l0,-12.8c0,-2.27 -0.08,-4.96 -0.24,-8.06c-0.16,-3.1 -0.36,-5.46 -0.6,-7.07l-7.87,-0.99l0,-0.3l21.68,0l0,0.3l-6.1,0.99c-0.28,1.3 -0.49,3.45 -0.64,6.48c-0.15,3.02 -0.22,5.56 -0.22,7.61l0,14.5c0,2.25 -0.27,4.17 -0.81,5.74c-0.54,1.58 -1.38,2.93 -2.51,4.07c-0.78,0.78 -1.6,1.44 -2.45,1.97c-0.86,0.54 -1.94,1.01 -3.26,1.41c-1.32,0.4 -2.75,0.69 -4.31,0.87c-1.56,0.18 -3.48,0.27 -5.77,0.27c-3.75,0 -7.01,-0.42 -9.78,-1.26c-2.77,-0.84 -4.95,-2.23 -6.53,-4.19c-1.57,-1.94 -2.37,-4.49 -2.37,-7.64zm17.05,12.32l0,-0.39c-2.81,-0.16 -5.27,-0.72 -7.37,-1.69c-2.1,-0.97 -3.75,-2.4 -4.93,-4.31s-1.78,-4.23 -1.78,-6.98l0,-28.95l-2.09,0l0,30c0,3.69 1.29,6.6 3.87,8.75c2.58,2.14 6.68,3.33 12.3,3.57zm3.92,-0.39l0,0.39c2.35,-0.14 4.39,-0.52 6.1,-1.15c1.71,-0.63 3.13,-1.5 4.26,-2.63s1.97,-2.54 2.53,-4.23c0.56,-1.69 0.84,-3.66 0.84,-5.89l0,-28.41l-2.09,0l0,28.35c0,3.99 -0.92,7.14 -2.75,9.45c-1.84,2.31 -4.8,3.69 -8.89,4.12zm37.38,-43.03l25.96,0c1.57,0 3.02,-0.05 4.34,-0.13c1.32,-0.09 3.01,-0.23 5.08,-0.43l0.69,9.69l-0.36,0l-2.21,-7.06c-1.81,-0.32 -3.71,-0.48 -5.68,-0.48c-1.7,0 -3.24,0.09 -4.64,0.27c-1.4,0.18 -2.9,0.48 -4.52,0.9c-0.16,1.85 -0.28,3.64 -0.36,5.37c-0.08,1.72 -0.14,3.32 -0.18,4.78c-0.04,1.47 -0.06,2.47 -0.06,3.01l0,9.93c0,2.61 0.09,5.54 0.27,8.78c0.18,3.24 0.4,5.83 0.66,7.76l7.39,1.11l0,0.3l-22.58,0l0,-0.3l7.27,-1.11c0.62,-4.41 0.93,-9.74 0.93,-16l0,-10.84c0,-2.23 -0.05,-4.44 -0.15,-6.61c-0.1,-2.17 -0.27,-4.24 -0.51,-6.19c-1.16,-0.32 -2.5,-0.57 -4.04,-0.76c-1.54,-0.19 -2.99,-0.3 -4.37,-0.34c-2.17,0 -4.32,0.18 -6.43,0.54l-2.15,7.12l-0.42,0l0.66,-9.81c0.6,0.04 1.47,0.13 2.6,0.28c1.13,0.14 2.07,0.22 2.81,0.22zm12.91,1.11l0,41.51l2,0l0,-41.51l-2,0zm30.56,-0.81l0,-0.3l31.85,0l0.75,9.3l-0.48,0l-2.15,-7.3c-1.69,-0.12 -3.6,-0.18 -5.71,-0.18c-3.85,0 -6.95,0.27 -9.3,0.81c-0.4,3.23 -0.6,6.92 -0.6,11.07c0,2.59 0.08,4.7 0.24,6.31c3.15,0.18 5.15,0.27 6.01,0.27c2.25,0 4.58,-0.13 6.97,-0.39l1.35,-5.08l0.51,0l0,12.74l-0.51,0l-1.41,-5.38c-1.73,-0.2 -3.65,-0.3 -5.74,-0.3c-2.63,0 -5.02,0.12 -7.18,0.36c-0.26,2.31 -0.34,4.58 -0.24,6.79c0.04,2.83 0.09,5.17 0.15,7.01c0.06,1.84 0.17,3.43 0.33,4.77c2.43,0.74 5.62,1.11 9.57,1.11c2.27,0 4.19,-0.09 5.74,-0.27l2.39,-7.21l0.42,0l-0.66,9.36l-32.21,0l0,-0.3l7.15,-1.05c0.16,-0.82 0.3,-2.06 0.43,-3.74c0.13,-1.67 0.24,-3.55 0.34,-5.64c0.1,-2.08 0.17,-3.83 0.21,-5.23c0.04,-1.41 0.06,-2.64 0.06,-3.69l0,-7.54c0,-0.96 -0.03,-2.32 -0.09,-4.08c-0.06,-1.77 -0.15,-3.59 -0.27,-5.49c-0.12,-1.89 -0.29,-3.79 -0.51,-5.68l-7.41,-1.05zm9.09,0.87l0,41.45l2.06,0l0,-41.45l-2.06,0z" class="st2"/>
 </g>
</svg>